<svg width="26" height="26" viewBox="0 0 26 26" fill="none" xmlns="http://www.w3.org/2000/svg">
<path d="M23.4229 13L24.9971 14.9678C25.1494 15.1624 25.2679 15.374 25.3525 15.6025C25.4372 15.8311 25.4795 16.0723 25.4795 16.3262C25.4795 16.5801 25.4414 16.8213 25.3652 17.0498C25.2891 17.2783 25.179 17.4857 25.0352 17.6719C24.8913 17.8581 24.7178 18.0189 24.5146 18.1543C24.3115 18.2897 24.0915 18.3913 23.8545 18.459L21.4297 19.1318C21.4466 19.5635 21.4678 19.9993 21.4932 20.4395C21.5186 20.8796 21.5355 21.3197 21.5439 21.7598C21.5439 22.0645 21.4889 22.348 21.3789 22.6104C21.2689 22.8727 21.1123 23.1012 20.9092 23.2959C20.7061 23.4906 20.4733 23.6471 20.2109 23.7656C19.9486 23.8841 19.6608 23.9434 19.3477 23.9434C19.0853 23.9434 18.8271 23.8968 18.5732 23.8037L16.2246 22.915L14.8408 25.0098C14.6377 25.3229 14.3753 25.5641 14.0537 25.7334C13.7321 25.9027 13.3809 25.9915 13 26C12.6276 26 12.2806 25.9154 11.959 25.7461C11.6374 25.5768 11.3708 25.3314 11.1592 25.0098L9.77539 22.915L7.42676 23.8037C7.17285 23.8968 6.91471 23.9434 6.65234 23.9434C6.34766 23.9434 6.06413 23.8883 5.80176 23.7783C5.53939 23.6683 5.30664 23.5117 5.10352 23.3086C4.90039 23.1055 4.74381 22.8727 4.63379 22.6104C4.52376 22.348 4.46452 22.0645 4.45605 21.7598C4.45605 21.3197 4.46875 20.8796 4.49414 20.4395C4.51953 19.9993 4.54492 19.5635 4.57031 19.1318L2.14551 18.459C1.90007 18.3913 1.68001 18.2897 1.48535 18.1543C1.29069 18.0189 1.12142 17.8581 0.977539 17.6719C0.833659 17.4857 0.723633 17.2783 0.647461 17.0498C0.571289 16.8213 0.528971 16.5801 0.520508 16.3262C0.520508 16.0807 0.562826 15.8438 0.647461 15.6152C0.732096 15.3867 0.850586 15.1709 1.00293 14.9678L2.57715 13L1.00293 11.0322C0.681315 10.6344 0.520508 10.1816 0.520508 9.67383C0.520508 9.41992 0.558594 9.17871 0.634766 8.9502C0.710938 8.72168 0.820964 8.51432 0.964844 8.32812C1.10872 8.14193 1.27799 7.98112 1.47266 7.8457C1.66732 7.71029 1.8916 7.60872 2.14551 7.54102L4.57031 6.86816C4.55339 6.43652 4.53223 6.00065 4.50684 5.56055C4.48145 5.12044 4.46452 4.68034 4.45605 4.24023C4.45605 3.93555 4.51107 3.65202 4.62109 3.38965C4.73112 3.12728 4.8877 2.89876 5.09082 2.7041C5.29395 2.50944 5.52669 2.35286 5.78906 2.23438C6.05143 2.11589 6.33919 2.05664 6.65234 2.05664C6.91471 2.05664 7.17285 2.10319 7.42676 2.19629L9.77539 3.08496L11.1592 0.990234C11.3623 0.677083 11.6247 0.435872 11.9463 0.266602C12.2679 0.0973307 12.6191 0.00846354 13 0C13.3724 0 13.7194 0.0846354 14.041 0.253906C14.3626 0.423177 14.6292 0.66862 14.8408 0.990234L16.2246 3.08496L18.5732 2.19629C18.8271 2.10319 19.0853 2.05664 19.3477 2.05664C19.6523 2.05664 19.9359 2.11165 20.1982 2.22168C20.4606 2.33171 20.6934 2.48828 20.8965 2.69141C21.0996 2.89453 21.2562 3.12728 21.3662 3.38965C21.4762 3.65202 21.5355 3.93555 21.5439 4.24023C21.5439 4.68034 21.5312 5.12044 21.5059 5.56055C21.4805 6.00065 21.4551 6.43652 21.4297 6.86816L23.8545 7.54102C24.0915 7.60872 24.3115 7.71029 24.5146 7.8457C24.7178 7.98112 24.887 8.14193 25.0225 8.32812C25.1579 8.51432 25.2679 8.72168 25.3525 8.9502C25.4372 9.17871 25.4795 9.41992 25.4795 9.67383C25.4795 10.1816 25.3187 10.6344 24.9971 11.0322L23.4229 13ZM11.375 17.6846L18.5986 10.4736L17.1514 9.02637L11.375 14.8154L8.84863 12.2764L7.40137 13.7236L11.375 17.6846Z" fill="#00A2F7"/>
</svg>
