<svg width="28" height="27" viewBox="0 0 28 27" fill="none" xmlns="http://www.w3.org/2000/svg">
<path d="M12.7989 26.25C12.7989 26.664 12.4629 27 12.0489 27H1.54889C1.13489 27 0.798889 26.664 0.798889 26.25C0.798889 25.836 1.13489 25.5 1.54889 25.5H12.0489C12.4629 25.5 12.7989 25.836 12.7989 26.25ZM27.0489 18.75H22.5489V26.25C22.5489 26.664 22.2129 27 21.7989 27C21.3849 27 21.0489 26.664 21.0489 26.25V18.75H18.9099C17.5509 22.2547 14.1519 24.75 10.1739 24.75C5.00414 24.75 0.798889 20.5448 0.798889 15.375C0.798889 11.9925 2.60564 9.0315 5.29889 7.38225V0.75C5.29889 0.336 5.63489 0 6.04889 0C6.46289 0 6.79889 0.336 6.79889 0.75V6.639C7.84814 6.23175 8.98289 6 10.1739 6C10.9126 6 11.6289 6.0945 12.3189 6.25725L15.9084 0.36C16.1799 -0.087 16.9179 -0.087 17.1894 0.36L20.6221 6H27.0489C27.4629 6 27.7989 6.336 27.7989 6.75C27.7989 7.164 27.4629 7.5 27.0489 7.5H21.5356L27.6894 17.61C28.0014 18.1222 27.6181 18.75 27.0489 18.75ZM17.2779 18.75H6.04889C5.47964 18.75 5.09639 18.1222 5.40839 17.61C5.87939 16.836 11.4901 7.61925 11.4901 7.61925C11.0611 7.5465 10.6231 7.5 10.1739 7.5C8.96489 7.5 7.82339 7.782 6.79889 8.271V12.75C6.79889 13.164 6.46289 13.5 6.04889 13.5C5.63489 13.5 5.29889 13.164 5.29889 12.75V9.2025C3.47489 10.6463 2.29889 12.8737 2.29889 15.375C2.29889 19.7175 5.83139 23.25 10.1739 23.25C13.3074 23.25 16.0111 21.4058 17.2779 18.75ZM18.0489 15.375C18.0489 12.0278 15.9459 9.1695 12.9946 8.031L7.38314 17.25H17.8134C17.9619 16.6478 18.0489 16.0222 18.0489 15.375ZM25.7146 17.25L19.7799 7.5H16.5489C16.1349 7.5 15.7989 7.164 15.7989 6.75C15.7989 6.336 16.1349 6 16.5489 6H18.8664L16.5489 2.19225L13.7889 6.726C17.1684 8.14425 19.5489 11.4862 19.5489 15.375C19.5489 16.017 19.4836 16.644 19.3599 17.25H21.0489V14.25C21.0489 13.836 21.3849 13.5 21.7989 13.5C22.2129 13.5 22.5489 13.836 22.5489 14.25V17.25H25.7146Z" fill="#474747"/>
</svg>
